<svg id="f38836c0-2d34-419e-a436-b313ab91ad7f" data-name="Layer 1" xmlns="http://www.w3.org/2000/svg" width="818.78" height="192.52" viewBox="0 0 818.78 192.52"><path d="M108.35,165.27c1.88,0,5.39-.65,5.81-5.8h0V96.85q0-1,0-1.92c-.17-9.3-2.58-10.73-5-9.8a8.24,8.24,0,0,0-2.22,1.38c-1.19,1-3.11,2.91-3.11,2.91h0L75.66,117.59l-16.3,16.3s-.88.79-1.81,1.83c-1.5,1.66-2.67,4.66-.21,8.41a15.92,15.92,0,0,0,3.07,3.39,27.46,27.46,0,0,0,2.6,2h0a85.31,85.31,0,0,0,44.55,15.75h0S107.83,165.27,108.35,165.27Z" style="fill:#fff"/><path d="M30.59,55.51h0a5.31,5.31,0,0,0-.21.74c-.44,2-.84,7.26,7.36,7.26H84.55c10.34,0,6.85-5,5-7-.49-.53-.87-.87-.87-.87L58.76,25.75l-2.5-2.51c-3.4-3.4-6.49-1.48-7.85,0-.65.69-.9,1-.9,1h0A85.22,85.22,0,0,0,30.59,55.51Z" style="fill:#fff"/><path d="M89.05,72.76H40.26c-10.91,0-12.85,6.31-13.07,9.88a10.85,10.85,0,0,0,.09,2.4h0a85.3,85.3,0,0,0,13,40.42h0a6.5,6.5,0,0,0,.54.83A8.21,8.21,0,0,0,44.3,129c2.51,1,6.21.66,11.14-4.27l5-5,37-37,.34-.33c8.52-8.52-.1-9.65-7-9.7C89.71,72.75,89.08,72.76,89.05,72.76Z" style="fill:#fff"/><path d="M123.41,99.74c0,1.56,0,2.63,0,2.64v48.39a29.26,29.26,0,0,0,0,2.94c.22,5,2.09,10.57,10.55,9a21.07,21.07,0,0,0,3.39-.93h0A85.4,85.4,0,0,0,167,146.07h0a20.32,20.32,0,0,0,1.61-1.37c1.86-1.72,4.28-5.11-1.09-10.21l-22.94-22.94L132.22,99.21C125.18,92.17,123.51,96.47,123.41,99.74Z" style="fill:#fff"/><path d="M181.89,148.88a97.76,97.76,0,0,1-138.24,0c-1.08-1.08-2.11-2.18-3.13-3.29-.86-.94-1.69-1.9-2.5-2.87s-1.71-2.08-2.54-3.14A97.83,97.83,0,0,1,41,13.37c.86-.92,1.71-1.84,2.61-2.74L33,0h0A112.86,112.86,0,0,0,17.8,140.59a112.33,112.33,0,0,0,11.75,15.27c.13.14.27.28.4.43,1,1.08,2,2.16,3.06,3.22a112.87,112.87,0,0,0,144.12,12.85,114,114,0,0,0,15.39-12.85Z" style="fill:#fff"/><path d="M108,37l6.14,13.45L120.31,37l1.42-3.17,4.63-10.28a13,13,0,0,0,.93-4.84,13.12,13.12,0,0,0-11.53-13,13.85,13.85,0,0,0-1.59-.1,13.11,13.11,0,0,0-12.2,18Z" style="fill:#fff"/><path d="M151.05,48.93,164,44l3.94-1.49a16.1,16.1,0,0,0,5-26.09,16.54,16.54,0,0,0-3.64-2.72,16,16,0,0,0-22.45,7.7l-6.4,16.89-1.49,4-1,2.7L134.1,55.26l16-6Z" style="fill:#fff"/><path d="M167.85,65.24l-1.78.81-2.34,1-9.33,4.2L141,77.44l13.45,6.14,8.21,3.7,5.24,2.36a13.06,13.06,0,0,0,14.36-3.19,13.11,13.11,0,0,0-9.52-22.14A13.19,13.19,0,0,0,167.85,65.24Z" style="fill:#fff"/><path d="M248.57,131.88h28.87v8.2H238.06V58.67h10.51Z" style="fill:#fff"/><path d="M288.3,53.42a8.43,8.43,0,0,1,10.39,0,6.56,6.56,0,0,1,0,9.35,8.43,8.43,0,0,1-10.39,0,6.53,6.53,0,0,1,0-9.35Zm10.39,23.27v63.39H288.18V76.69Z" style="fill:#fff"/><path d="M411.33,82.75q6.76,7.09,6.76,20.49v36.84H407.58V104.17q0-9.36-4.56-14.32t-12.53-5q-8.31,0-13.34,5.49t-5,16.11v33.6H361.62V104.17q0-9.36-4.62-14.32t-12.47-5q-8.43,0-13.45,5.49t-5,16.11v33.6h-10.5V76.69h10.5V91.12a20.62,20.62,0,0,1,8.26-11.49,25.8,25.8,0,0,1,27.72.12,22.28,22.28,0,0,1,8.48,12.06,22.94,22.94,0,0,1,8.9-12,24.54,24.54,0,0,1,14.08-4.21Q404.58,75.65,411.33,82.75Z" style="fill:#fff"/><path d="M492.22,110.64H441.53q.35,10.85,6.18,16.28A20.13,20.13,0,0,0,462,132.34a20.61,20.61,0,0,0,12.76-3.86A16,16,0,0,0,481,118.14h11.2A26.47,26.47,0,0,1,476.75,138a34.14,34.14,0,0,1-14.32,2.89A32.75,32.75,0,0,1,446.26,137a27.85,27.85,0,0,1-11-11.27,35.66,35.66,0,0,1-4-17.26,36,36,0,0,1,4-17.32,27.73,27.73,0,0,1,11-11.32,32.75,32.75,0,0,1,16.17-3.92,32,32,0,0,1,16.11,3.92,27.08,27.08,0,0,1,10.51,10.51,29.63,29.63,0,0,1,3.63,14.55A31.17,31.17,0,0,1,492.22,110.64ZM479.75,93.78a16.92,16.92,0,0,0-7.27-7,22.16,22.16,0,0,0-10.05-2.31,20.77,20.77,0,0,0-14.55,5.37q-5.89,5.37-6.35,15.77h40.53Q482.41,98.51,479.75,93.78Z" style="fill:#fff"/><path d="M556.66,129.52a21,21,0,0,1-8.78,8.25,30.55,30.55,0,0,1-14.44,3.12A36.11,36.11,0,0,1,518.55,138,26,26,0,0,1,508,129.69a23.45,23.45,0,0,1-4.5-12.24h14.09a14.4,14.4,0,0,0,4.56,9.12c2.65,2.54,6.22,3.81,10.68,3.81q6,0,9.29-3.23a11.14,11.14,0,0,0,3.29-8.32,10.68,10.68,0,0,0-2.42-7.21,17.06,17.06,0,0,0-6-4.45c-2.39-1.07-5.66-2.31-9.82-3.69a86.47,86.47,0,0,1-12.41-4.85,22.55,22.55,0,0,1-8.14-7Q503.3,87,503.31,79.46a20.65,20.65,0,0,1,3.23-11.55,21,21,0,0,1,9.24-7.68,33.3,33.3,0,0,1,13.85-2.71q12.48,0,19.81,6a22.61,22.61,0,0,1,8.37,15.71h-14.2a13.94,13.94,0,0,0-4.33-7.92Q535.75,68,529.63,68a13.35,13.35,0,0,0-8.89,2.82c-2.23,1.89-3.35,4.61-3.35,8.14a10.2,10.2,0,0,0,2.31,6.87,16.14,16.14,0,0,0,5.83,4.28q3.53,1.56,9.65,3.64a84.81,84.81,0,0,1,12.64,4.9,23.13,23.13,0,0,1,8.32,7.22q3.4,4.74,3.4,12.47A22.43,22.43,0,0,1,556.66,129.52Z" style="fill:#fff"/><path d="M604.69,128.65v11.43h-8.08q-10.17,0-15.42-4.91t-5.25-16.34V87.66h-9.12V76.45h9.12V60.64h13.28V76.45h15.36V87.66H589.22v31.41c0,3.61.67,6.12,2,7.5s3.71,2.08,7.1,2.08Z" style="fill:#fff"/><path d="M657.34,79.92A23,23,0,0,1,666,91.24V76.45h13.16v63.63H666V125.3a23,23,0,0,1-8.67,11.32,25.13,25.13,0,0,1-14.77,4.27A28.27,28.27,0,0,1,627.73,137a26.87,26.87,0,0,1-10.22-11.32,38.49,38.49,0,0,1-3.7-17.44,38.2,38.2,0,0,1,3.7-17.32,26.82,26.82,0,0,1,10.22-11.32,28.27,28.27,0,0,1,14.84-3.92A25.13,25.13,0,0,1,657.34,79.92ZM632.58,92.79q-5.26,5.61-5.26,15.42t5.26,15.42q5.25,5.59,14,5.6a19.16,19.16,0,0,0,9.93-2.6,18.56,18.56,0,0,0,6.93-7.33,25.35,25.35,0,0,0,0-22.12,18.53,18.53,0,0,0-6.93-7.39,19.16,19.16,0,0,0-9.93-2.6Q637.84,87.19,632.58,92.79Z" style="fill:#fff"/><path d="M743.72,82.17q8.09,6.52,10,17.72h-14a14.9,14.9,0,0,0-5.6-9.41,17.76,17.76,0,0,0-11.14-3.4,16.76,16.76,0,0,0-12.7,5.37q-5.08,5.37-5.08,15.76T710.35,124a16.67,16.67,0,0,0,12.7,5.43A17.61,17.61,0,0,0,734.19,126a15.14,15.14,0,0,0,5.6-9.47h14a28.4,28.4,0,0,1-10,17.78q-8.09,6.58-20.44,6.58A33.3,33.3,0,0,1,706.94,137a28,28,0,0,1-11.14-11.32,35.75,35.75,0,0,1-4-17.44,35.49,35.49,0,0,1,4-17.32,27.92,27.92,0,0,1,11.14-11.32,33.3,33.3,0,0,1,16.34-3.92Q735.64,75.65,743.72,82.17Z" style="fill:#fff"/><path d="M802.49,140.08l-22.86-28.29v28.29H766.47V54.63h13.16v49l22.63-27.14h15.83L790.37,108.1l28.41,32Z" style="fill:#fff"/></svg>