<svg id="f055956f-d292-4306-8553-769c7797aaad" data-name="ed15083a-efbd-40a8-bcf0-5dc6fb1adb49" xmlns="http://www.w3.org/2000/svg" width="880.44" height="572.99" viewBox="0 0 880.44 572.99"><path d="M821.09,308.34l-2.33,31.81a7.09,7.09,0,0,1-6.6,6.56h0a7.09,7.09,0,0,1-7.54-6.6c0-.21,0-.43,0-.64l.74-31.13,27.38-87.83-3.31-53.81,25.92-.93-1.85,62Z" transform="translate(0 0)" style="fill:#a0616a"/><path d="M860.7,176.7c-11.56-2.67-21.46.44-29.14,11.25l-5.94-45a11.81,11.81,0,0,1,8.87-12.67h0a11.81,11.81,0,0,1,14.14,7.92Z" transform="translate(0 0)" style="fill:#20ce54"/><path d="M862.06,123.93c-26.71-11.37-54.15-4.17-86.65.83-.3-6.05-4-13.41-.13-17.64,4.67-5.12,4.24-10.51,1.43-15.93-7.17-13.86,3.11-28.61,13.49-40.87a23,23,0,0,1,19.19-8l19.24,1.37c9.58.68,11.9,7.25,14.62,16.46h0c4.59,6.25,7,12.48,5.5,18.67,6.88,4.71,8,10.38,5,16.78-2.62,4-2.6,8,.12,11.76a54.32,54.32,0,0,1,8.07,16Z" transform="translate(0 0)" style="fill:#2f2e41"/><polygon points="766.71 538.61 753.93 538.61 746.34 433.07 778.74 432.14 766.71 538.61" style="fill:#a0616a"/><path d="M767.63,572.86c-3.4,1.56-6.26-11-9.13-8.22-8,7.9-27.32,6.13-27.32,6.13a5,5,0,0,1-3.25-6.32,2.09,2.09,0,0,1,.08-.23h0a5,5,0,0,1,3.48-3.11L740,559l13.43-23.6,13.7-.93h0a32.76,32.76,0,0,1,6.06,27.93C772,567.45,770.06,571.75,767.63,572.86Z" transform="translate(0 0)" style="fill:#2f2e41"/><polygon points="851.79 538.61 839.01 538.61 831.42 433.07 864.75 426.59 851.79 538.61" style="fill:#a0616a"/><path d="M852.72,572.86c-3.41,1.56-6.27-11-9.14-8.22-8,7.9-27.32,6.13-27.32,6.13a5,5,0,0,1-3.25-6.32,2.09,2.09,0,0,1,.08-.23h0a5,5,0,0,1,3.49-3.11l8.54-2.14,13.43-23.6,14.63-1.85.37.6a37.73,37.73,0,0,1,4,30.84C856.37,568.86,854.72,572,852.72,572.86Z" transform="translate(0 0)" style="fill:#2f2e41"/><path d="M880.44,437.83c-20.65,9.14-33-.75-54,2.24-6,.86-13.08-87.41-19.11-87.05-7.68.47-14.33,89.43-22,89.13a255.37,255.37,0,0,1-57.41-9.08c20-77.65,43.65-147.85,43.51-205.53l60-4.62,8.27,13.1c13.26,31.1,26.8,65.63,33.54,101.78Z" transform="translate(0 0)" style="fill:#2f2e41"/><circle cx="800.96" cy="80.35" r="27.77" style="fill:#a0616a"/><polygon points="831.51 129.41 797.26 131.26 791.71 100.71 819.48 96.08 831.51 129.41" style="fill:#a0616a"/><path d="M834.17,227.54l-43.89,1.06-18.94,2.65c-9.3-30.72-17.13-61.37,1.85-87L795.41,122l33.33-.93.44.25a26.84,26.84,0,0,1,12.29,31.23C833.2,179.43,834.25,204.81,834.17,227.54Z" transform="translate(0 0)" style="fill:#20ce54"/><path d="M832.49,80.21A33.8,33.8,0,0,0,824,57.71V47.85H793.84a17.49,17.49,0,0,0-17.49,17.49h20.07c-5.41,10-7.75,20.41-2.53,30.47,3.14,6.08,3.28,18.14-1,23.93a59.33,59.33,0,0,0,6.8,0c9.31,0,34.68,1.21,40.81-4.86S832.49,89.63,832.49,80.21Z" transform="translate(0 0)" style="fill:#2f2e41"/><path d="M785.79,311.25H607.88a4.26,4.26,0,0,0-4.24,4.25V502.24a4.26,4.26,0,0,0,4.24,4.24H785.79a4.25,4.25,0,0,0,4.24-4.24V315.5A4.26,4.26,0,0,0,785.79,311.25Z" transform="translate(0 0)" style="fill:#e6e6e6"/><path d="M781.55,316.56H612.12a3.19,3.19,0,0,0-3.18,3.18V498a3.2,3.2,0,0,0,3.18,3.18H781.55a3.19,3.19,0,0,0,3.18-3.18V319.74A3.18,3.18,0,0,0,781.55,316.56Z" transform="translate(0 0)" style="fill:#fff"/><path d="M770.41,313.64l-2.33,31.82a7.08,7.08,0,0,1-6.59,6.55h0a7.09,7.09,0,0,1-7.54-6.6c0-.21,0-.43,0-.64l.74-31.13,23.15-87.95.92-53.69,25.93-.93-1.86,62Z" transform="translate(0 0)" style="fill:#a0616a"/><path d="M807.44,175.7c-11-4.47-21.25-3-30.55,6.48l1.28-45.33a11.8,11.8,0,0,1,10.76-11.1h0a11.81,11.81,0,0,1,12.71,10.06Z" transform="translate(0 0)" style="fill:#20ce54"/><path d="M769,361.65a1.81,1.81,0,0,1,1.82,1.82h0v3.66A1.81,1.81,0,0,1,769,369H624.69a1.81,1.81,0,0,1-1.82-1.82h0v-3.66a1.81,1.81,0,0,1,1.82-1.82H769" transform="translate(0 0)" style="fill:#e6e6e6"/><path d="M769,379a1.82,1.82,0,0,1,1.82,1.82h0v3.66A1.81,1.81,0,0,1,769,386.3H624.69a1.81,1.81,0,0,1-1.82-1.82h0v-3.66a1.82,1.82,0,0,1,1.82-1.82H769" transform="translate(0 0)" style="fill:#e6e6e6"/><path d="M769,396.35a1.82,1.82,0,0,1,1.82,1.83h0v3.65a1.81,1.81,0,0,1-1.82,1.82H624.69a1.81,1.81,0,0,1-1.82-1.82h0v-3.65a1.82,1.82,0,0,1,1.82-1.83H769" transform="translate(0 0)" style="fill:#20ce54"/><path d="M769,414.08a1.82,1.82,0,0,1,1.82,1.83h0v3.65a1.81,1.81,0,0,1-1.82,1.82H624.69a1.81,1.81,0,0,1-1.82-1.82h0v-3.65a1.82,1.82,0,0,1,1.82-1.83H769" transform="translate(0 0)" style="fill:#e6e6e6"/><path d="M769,431.43a1.82,1.82,0,0,1,1.82,1.83h0v3.65a1.82,1.82,0,0,1-1.82,1.83H624.69a1.82,1.82,0,0,1-1.82-1.83h0v-3.65a1.82,1.82,0,0,1,1.82-1.83H769" transform="translate(0 0)" style="fill:#e6e6e6"/><path d="M769,448.78a1.82,1.82,0,0,1,1.82,1.83h0v3.65a1.82,1.82,0,0,1-1.82,1.83H624.69a1.82,1.82,0,0,1-1.82-1.83h0v-3.65a1.82,1.82,0,0,1,1.82-1.83H769" transform="translate(0 0)" style="fill:#e6e6e6"/><path d="M132.23,533.65l-14.17.78L85.79,317.21,55.49,534,40.14,530.5C31.62,437,20.52,340.41,28.33,298.32H136.16C152.17,340.16,141.49,438.41,132.23,533.65Z" transform="translate(0 0)" style="fill:#2f2e41"/><path d="M44.09,573h0a12.69,12.69,0,0,1-11.67-15.7l6.45-26.19c5.38-6.7,10.21-6.4,14.54,0l4.43-1.9L61,552,56.64,564.7A12.69,12.69,0,0,1,44.09,573Z" transform="translate(0 0)" style="fill:#2f2e41"/><path d="M129.86,573h0a12.69,12.69,0,0,0,11.66-15.7l-6.44-26.19c-5.39-6.7-10.22-6.4-14.55,0l-4.43-1.9L112.94,552l4.36,12.74A12.7,12.7,0,0,0,129.86,573Z" transform="translate(0 0)" style="fill:#2f2e41"/><circle cx="88.94" cy="44.88" r="31.48" style="fill:#ffb8b8"/><polygon points="107.83 103.12 67.69 103.12 70.05 61.41 107.83 61.41 107.83 103.12" style="fill:#ffb8b8"/><path d="M150.33,303H22.82c18.6-62.69,15.33-129.84,1.58-199.13L59,92.89,68.47,85c11.86,14.44,25,14.32,39.36-.79l11.8,8.66,34.63,11.81C136,171.46,133,237.63,150.33,303Z" transform="translate(0 0)" style="fill:#20ce54"/><path d="M55.31,36.75A28.48,28.48,0,0,1,57.25,13.6C61.09,6.78,68.5.38,82.74,0c31.08-.79,44.55,22.64,42.8,29.51s-8,23.22-8,23.22,3.89-15.74-3.88-17.31S75.76,27.57,67,34.65a17.79,17.79,0,0,0-6.8,16.53Z" transform="translate(0 0)" style="fill:#2f2e41"/><path d="M182.58,312.32H4.66a4.27,4.27,0,0,0-4.24,4.24V503.3a4.26,4.26,0,0,0,4.24,4.24H182.58a4.26,4.26,0,0,0,4.24-4.24V316.56A4.25,4.25,0,0,0,182.58,312.32Z" transform="translate(0 0)" style="fill:#e6e6e6"/><path d="M178.34,317.62H8.91a3.19,3.19,0,0,0-3.19,3.18V499.06a3.2,3.2,0,0,0,3.19,3.18H178.34a3.2,3.2,0,0,0,3.18-3.18V320.8A3.19,3.19,0,0,0,178.34,317.62Z" transform="translate(0 0)" style="fill:#fff"/><path d="M146.2,327.54h0a12.89,12.89,0,0,1-7.34-16.69l.15-.38,10.53-24.75L148,207l-5.51-26.76,28.33-11,5.51,37-10.23,85-2.36,25.48a12.9,12.9,0,0,1-14,11.65A13.07,13.07,0,0,1,146.2,327.54Z" transform="translate(0 0)" style="fill:#ffb8b8"/><path d="M30.1,327.54h0a12.88,12.88,0,0,0,7.34-16.69c0-.13-.1-.25-.15-.38L26.76,285.72,28.33,207l5.51-26.76-28.33-11L0,206.23l10.23,85,2.36,25.48a12.9,12.9,0,0,0,14,11.65A13.07,13.07,0,0,0,30.1,327.54Z" transform="translate(0 0)" style="fill:#ffb8b8"/><path d="M173.15,171.6a100.35,100.35,0,0,0-31.48,14.17l-7.08-21.25,18.1-60.61h0a25.87,25.87,0,0,1,17.63,22.9A246.86,246.86,0,0,0,173.15,171.6Z" transform="translate(0 0)" style="fill:#20ce54"/><path d="M3.15,171.6a100.35,100.35,0,0,1,31.48,14.17l7.08-21.25L26,103.12h0C16,106.45,6.65,116.3,6,126.81A246.86,246.86,0,0,1,3.15,171.6Z" transform="translate(0 0)" style="fill:#20ce54"/><path d="M165.76,361.72a1.83,1.83,0,0,1,1.83,1.83h0v3.65a1.83,1.83,0,0,1-1.83,1.83H21.48a1.83,1.83,0,0,1-1.83-1.83h0v-3.65a1.83,1.83,0,0,1,1.83-1.83H165.76" transform="translate(0 0)" style="fill:#e6e6e6"/><path d="M165.76,379.07a1.83,1.83,0,0,1,1.83,1.83h0v3.65a1.83,1.83,0,0,1-1.83,1.83H21.48a1.83,1.83,0,0,1-1.83-1.83h0V380.9a1.83,1.83,0,0,1,1.83-1.83H165.76" transform="translate(0 0)" style="fill:#e6e6e6"/><path d="M165.76,396.42a1.83,1.83,0,0,1,1.83,1.83v3.65a1.83,1.83,0,0,1-1.83,1.83H21.48a1.83,1.83,0,0,1-1.83-1.83h0v-3.65a1.83,1.83,0,0,1,1.83-1.83H165.76" transform="translate(0 0)" style="fill:#20ce54"/><path d="M165.76,414.15a1.83,1.83,0,0,1,1.83,1.83h0v3.65a1.83,1.83,0,0,1-1.83,1.83H21.48a1.83,1.83,0,0,1-1.83-1.83h0V416a1.83,1.83,0,0,1,1.83-1.83H165.76" transform="translate(0 0)" style="fill:#e6e6e6"/><path d="M165.76,431.51a1.82,1.82,0,0,1,1.83,1.82h0V437a1.83,1.83,0,0,1-1.83,1.83H21.48A1.83,1.83,0,0,1,19.65,437h0v-3.65a1.82,1.82,0,0,1,1.83-1.82H165.76" transform="translate(0 0)" style="fill:#e6e6e6"/><path d="M165.76,448.86a1.82,1.82,0,0,1,1.83,1.82v3.66a1.83,1.83,0,0,1-1.83,1.82H21.48a1.83,1.83,0,0,1-1.83-1.82h0v-3.66a1.82,1.82,0,0,1,1.83-1.82H165.76" transform="translate(0 0)" style="fill:#e6e6e6"/><path d="M525.83,186.58H347.91a4.26,4.26,0,0,0-4.24,4.24V502.26a4.26,4.26,0,0,0,4.24,4.24H525.83a4.26,4.26,0,0,0,4.24-4.24V190.82A4.26,4.26,0,0,0,525.83,186.58Z" transform="translate(0 0)" style="fill:#e6e6e6"/><path d="M524.69,194.39a3.36,3.36,0,0,0-.44-1.07,3.22,3.22,0,0,0-2.66-1.44H352.15a3.2,3.2,0,0,0-3.18,3.18V498a3.2,3.2,0,0,0,3.18,3.18H521.59a3.2,3.2,0,0,0,3.18-3.18v-303A3.07,3.07,0,0,0,524.69,194.39Z" transform="translate(0 0)" style="fill:#fff"/><path d="M509,356.42a1.83,1.83,0,0,1,1.83,1.83h0v3.65a1.83,1.83,0,0,1-1.83,1.83H364.73a1.83,1.83,0,0,1-1.83-1.83h0v-3.65a1.83,1.83,0,0,1,1.83-1.83H509" transform="translate(0 0)" style="fill:#e6e6e6"/><path d="M509,373.77a1.83,1.83,0,0,1,1.83,1.83h0v3.65a1.83,1.83,0,0,1-1.83,1.83H364.73a1.83,1.83,0,0,1-1.83-1.83h0V375.6a1.83,1.83,0,0,1,1.83-1.83H509" transform="translate(0 0)" style="fill:#e6e6e6"/><path d="M509,391.12a1.83,1.83,0,0,1,1.83,1.83h0v3.65a1.83,1.83,0,0,1-1.83,1.83H364.73a1.83,1.83,0,0,1-1.83-1.83h0V393a1.83,1.83,0,0,1,1.83-1.83H509" transform="translate(0 0)" style="fill:#20ce54"/><path d="M509,408.85a1.83,1.83,0,0,1,1.83,1.83h0v3.65a1.83,1.83,0,0,1-1.83,1.83H364.73a1.83,1.83,0,0,1-1.83-1.83h0v-3.65a1.83,1.83,0,0,1,1.83-1.83H509" transform="translate(0 0)" style="fill:#e6e6e6"/><path d="M509,426.2a1.83,1.83,0,0,1,1.83,1.83h0v3.65a1.83,1.83,0,0,1-1.83,1.83H364.73a1.83,1.83,0,0,1-1.83-1.83h0V428a1.83,1.83,0,0,1,1.83-1.83H509" transform="translate(0 0)" style="fill:#e6e6e6"/><path d="M509,443.56a1.82,1.82,0,0,1,1.83,1.82h0V449a1.83,1.83,0,0,1-1.83,1.83H364.73A1.83,1.83,0,0,1,362.9,449h0v-3.65a1.82,1.82,0,0,1,1.83-1.82H509" transform="translate(0 0)" style="fill:#e6e6e6"/><path d="M365.77,221a2.12,2.12,0,0,0-2.12,2.12v98.5a2.12,2.12,0,0,0,2.12,2.12H508a2.12,2.12,0,0,0,2.12-2.12v-98.5A2.12,2.12,0,0,0,508,221Z" transform="translate(0 0)" style="fill:#20ce54"/><path d="M586.6,144.49c3.87,1.64,7.71,3.46,11.42,5.41l1-1.88c-3.77-2-7.66-3.82-11.58-5.48Z" transform="translate(0 0)" style="fill:#ccc"/><path d="M630.51,169.87l-1.42,1.58c3.13,2.79,6.18,5.76,9.06,8.8l1.54-1.46C636.77,175.71,633.68,172.7,630.51,169.87Z" transform="translate(0 0)" style="fill:#ccc"/><path d="M609,156.22c3.54,2.25,7,4.67,10.38,7.2l1.28-1.69c-3.39-2.56-6.93-5-10.53-7.3Z" transform="translate(0 0)" style="fill:#ccc"/><path d="M562.65,136.54c4.08,1,8.17,2.17,12.14,3.49l.67-2c-4-1.33-8.17-2.52-12.3-3.53Z" transform="translate(0 0)" style="fill:#ccc"/><path d="M679,257.88l-2.09.34c.66,4.13,1.15,8.35,1.46,12.54l2.11-.16C680.16,266.35,679.67,262.07,679,257.88Z" transform="translate(0 0)" style="fill:#ccc"/><path d="M670.75,233.76c1.38,4,2.59,8,3.61,12.1l2-.52c-1-4.13-2.26-8.25-3.65-12.27Z" transform="translate(0 0)" style="fill:#ccc"/><path d="M660.49,210.73c2,3.67,3.92,7.47,5.63,11.29l1.93-.86c-1.73-3.88-3.65-7.73-5.71-11.46Z" transform="translate(0 0)" style="fill:#ccc"/><path d="M646.44,189.77c2.63,3.28,5.14,6.7,7.47,10.18l1.76-1.18c-2.36-3.53-4.91-7-7.57-10.32Z" transform="translate(0 0)" style="fill:#ccc"/><path d="M543.59,121.73C538.78,125.55,531.15,129,525,131c5.91,2.5,13.2,6.65,17.64,10.9l-2.84-9.15c3.5.32,7,.76,10.45,1.31l.33-2.1c-3.52-.56-7.11-1-10.69-1.34Z" transform="translate(0 0)" style="fill:#ccc"/><path d="M206,221.16,208,222c1.71-3.83,3.6-7.63,5.63-11.3l-1.85-1C209.68,213.43,207.75,217.29,206,221.16Z" transform="translate(0 0)" style="fill:#ccc"/><path d="M197.67,245.34l2.05.52c1-4.06,2.23-8.13,3.6-12.1l-2-.69C199.93,237.09,198.7,241.22,197.67,245.34Z" transform="translate(0 0)" style="fill:#ccc"/><path d="M193.61,270.6l2.11.15c.31-4.18.8-8.4,1.46-12.53l-2.09-.34C194.41,262.07,193.92,266.35,193.61,270.6Z" transform="translate(0 0)" style="fill:#ccc"/><path d="M218.41,198.77l1.76,1.18c2.33-3.47,4.84-6.9,7.46-10.18L226,188.45C223.32,191.77,220.77,195.25,218.41,198.77Z" transform="translate(0 0)" style="fill:#ccc"/><path d="M275.07,148l1,1.88c3.71-2,7.55-3.77,11.41-5.41l-.83-2C282.73,144.2,278.84,146,275.07,148Z" transform="translate(0 0)" style="fill:#ccc"/><path d="M298.62,138l.67,2c4-1.32,8.06-2.5,12.14-3.49l-.51-2.06C306.79,135.49,302.65,136.68,298.62,138Z" transform="translate(0 0)" style="fill:#ccc"/><path d="M234.39,178.79l1.54,1.46c2.88-3,5.93-6,9.06-8.8l-1.42-1.58C240.4,172.7,237.31,175.71,234.39,178.79Z" transform="translate(0 0)" style="fill:#ccc"/><path d="M253.46,161.73l1.28,1.69c3.35-2.53,6.84-4.95,10.38-7.2L264,154.43C260.39,156.71,256.85,159.17,253.46,161.73Z" transform="translate(0 0)" style="fill:#ccc"/><path d="M349.05,131c-6.12-2-13.75-5.43-18.56-9.25l3.67,8.87c-3.58.33-7.17.78-10.69,1.34l.33,2.1c3.45-.55,6.95-1,10.45-1.31l-2.85,9.14C335.85,137.63,343.14,133.48,349.05,131Z" transform="translate(0 0)" style="fill:#ccc"/><path d="M436.87,163.84A32.87,32.87,0,1,1,469.73,131,32.86,32.86,0,0,1,436.87,163.84Zm0-63.61A30.75,30.75,0,1,0,467.61,131h0a30.78,30.78,0,0,0-30.74-30.75Z" transform="translate(0 0)" style="fill:#20ce54"/><rect x="433.69" y="115.07" width="6.36" height="31.8" style="fill:#20ce54"/><rect x="420.97" y="127.8" width="31.8" height="6.36" style="fill:#20ce54"/></svg>