<svg id="ae510b73-b701-4638-b2f9-7242eeac3491" data-name="Layer 1" xmlns="http://www.w3.org/2000/svg" width="962.75" height="681.67" viewBox="0 0 962.75 681.67"><g id="ad915c60-0d10-4e41-82da-5a522f09d249" data-name="Mobile development"><g id="f5cb3279-0b44-454f-830e-f5b385549b83" data-name="Cable"><path id="b10c8d8e-32ef-43f5-adf5-fbf091322189" data-name="Shape" d="M834.38,665.34H551.79a11.92,11.92,0,0,1-11.66-12.13V502.29h5.29V653.21a6.52,6.52,0,0,0,6.37,6.63H834.38a6.52,6.52,0,0,0,6.38-6.63V502.29H846V653.21A11.91,11.91,0,0,1,834.38,665.34Z" style="fill:#8f97b9"/><path id="bdbc04d6-e250-4520-8a10-2688632ffd38" data-name="Shape-2" d="M557.84,535.34H529.1a2.53,2.53,0,0,0-2.52,2.52v36.58A2.54,2.54,0,0,0,529.1,577h3.32a9.05,9.05,0,0,0,8.87,7.46H546a9,9,0,0,0,8.87-7.46h2.93a2.54,2.54,0,0,0,2.52-2.53V537.86A2.53,2.53,0,0,0,557.84,535.34Z" style="fill:#a1a8c5"/><path id="a88a6929-4cab-4afc-af93-7c3dab8d98e0" data-name="Shape-3" d="M863.77,605.78v17.78a8,8,0,0,1-8,8H830.13a8,8,0,0,1-8-8V605.78a8,8,0,0,1,8-8h25.64A8,8,0,0,1,863.77,605.78Z" style="fill:#a1a8c5"/></g><g id="afda4710-3f77-44bf-8f9c-3a9fed43b3dd" data-name="Crane"><path id="f513a826-7ef5-46e9-916f-a6b63152d882" data-name="Shape-4" d="M546.74,115.78l-62.47-75-70.4,75L349.25,35.62l3.06-2.46,61.79,76.6,70.35-74.92,62.35,74.88,65-74.85,70.44,75L752.48,35l81,74.93,21.68-23.53L858,89.11l-24.34,26.42-81-75-70.47,75.05L611.89,40.73Z" style="fill:#bbc0d6"/><path id="ad814a27-4d77-4485-ac19-8626cdc81c24" data-name="Shape-5" d="M352.31,112.74l-3.06-2.47,64.62-80.12,70.4,75,62.47-75,65.15,75.05L682.2,30.27l70.47,75.05L818.5,44.41l2.66,2.89-68.68,63.55L682.2,36l-70.43,75-65-74.85-62.35,74.88L414.1,36.13Z" style="fill:#bbc0d6"/><path id="b34a9073-d2ef-4ba3-9bc0-f4081445da9a" data-name="Shape-6" d="M294.93,439.21l-2.47-3,46.7-37.67L292.84,355l46.28-38.54-46.24-40.14,46.4-43.58L293,189.32l46.34-50.07L292.85,96.38,339.17,57l-46.4-41.93,2.64-2.91,49.72,44.93L298.77,96.5,344.93,139l-46.36,50.1L345,232.74,298.74,276.2l46.45,40.32-46.42,38.65,46.37,43.54Z" style="fill:#bbc0d6"/><path id="aa0857cb-bb17-41b7-9fe9-cbad7437e0d5" data-name="Shape-7" d="M340.15,439.21l-50.22-40.5,46.38-43.54-46.42-38.65,46.45-40.32-46.29-43.46,46.45-43.61L290.15,139,336.31,96.5,290,57.08l51.66-46.87,2.64,2.91L295.9,57l46.33,39.4L295.7,139.25,342,189.32l-46.24,43.42,46.41,43.57L296,316.46,342.24,355l-46.32,43.5,46.7,37.66Z" style="fill:#bbc0d6"/><path id="be242eae-4ecc-4045-9ced-0ad33850afd8" data-name="Shape-8" d="M334.55,462.28H301.3a10.63,10.63,0,0,1-10.62-10.62v-441A10.63,10.63,0,0,1,301.3,0h33.25a10.63,10.63,0,0,1,10.62,10.62v441A10.63,10.63,0,0,1,334.55,462.28ZM301.3,6.28A4.34,4.34,0,0,0,297,10.62v441A4.34,4.34,0,0,0,301.3,456h33.25a4.34,4.34,0,0,0,4.34-4.34v-441a4.36,4.36,0,0,0-4.34-4.34Z" style="fill:#8f97b9"/><path id="b46eb714-ffd7-4601-bc03-47d91b259674" data-name="Shape-9" d="M869.13,116.08H303.76a34.67,34.67,0,0,1-34.63-34.63V66.05a34.66,34.66,0,0,1,34.63-34.63H809.29l.93.92c.17.17,17.11,17.12,33.35,35.05,9.57,10.57,17,19.42,22.19,26.3,9.38,12.53,9.67,16.67,8.6,19.27A5.23,5.23,0,0,1,869.13,116.08ZM303.76,37.7a28.38,28.38,0,0,0-28.35,28.35v15.4a28.38,28.38,0,0,0,28.35,28.34H868.32c-.82-2.81-5.55-11.94-30.49-39.37-13.63-15-27.5-29.05-31.14-32.72Z" style="fill:#8f97b9"/></g><g id="ac796383-a688-4dd6-8b37-004f0dbb6ba6" data-name="Computer"><path id="a703b8b0-147b-45fa-a188-8397da8fde10" data-name="Shape-10" d="M425.34,671.62H229.65l61.5-169.2h59.73Z" style="fill:#bfbfbf"/><path id="e8929a2c-c42b-483a-9399-a324ed2ba7bf" data-name="Shape-11" d="M16,143.75H629a16,16,0,0,1,16,16V541.84a16,16,0,0,1-16,16H16a16,16,0,0,1-16-16V159.75A16,16,0,0,1,16,143.75Z" style="fill:#e5e8f5"/><path id="a12bf1d7-4046-461b-8e87-35d410363e2e" data-name="Shape-12" d="M21,143.75H634a16,16,0,0,1,16,16V536.84a16,16,0,0,1-16,16H21a16,16,0,0,1-16-16V159.75A16,16,0,0,1,21,143.75Z" style="fill:#fff"/><path id="a873d1b1-8ac0-47d5-b77f-0d3bd2fd8420" data-name="Shape-13" d="M5.21,480V160.17A16.54,16.54,0,0,1,21.7,143.68h612a16.54,16.54,0,0,1,16.48,16.49V480Z" style="fill:#37474f"/><path id="a66def8d-8f54-467f-abcd-159712b8b1d2" data-name="Shape-14" d="M36.16,159.23H618.83a14,14,0,0,1,14,14V456.72a14,14,0,0,1-14,14H36.16a14,14,0,0,1-14-14V173.26A14,14,0,0,1,36.16,159.23Z" style="fill:#56557e"/><path id="bc418109-5a98-4ab4-93f6-6b158635c1b1" data-name="Shape-15" d="M621.45,470.72H33.54A11.45,11.45,0,0,1,22.13,459.3V193.73H632.87V459.3A11.45,11.45,0,0,1,621.45,470.72Z" style="fill:#fff"/><path id="f3876064-cb10-4621-8e7a-231296ac21fe" data-name="Shape-16" d="M139.74,652.63H515.26a14.52,14.52,0,0,1,0,29H139.74a14.52,14.52,0,0,1,0-29Z" style="fill:#d8d6dd"/><circle id="e680a5b6-ada4-4c1d-8aa2-8f37f89a74cb" data-name="Shape-17" cx="327.46" cy="516.69" r="16" style="fill:#d8d6dd"/><circle id="f916148f-c9bc-4cbc-9470-67c8b7bd48d6" data-name="Shape-18" cx="40.78" cy="176.18" r="5" style="fill:#fa538d"/><circle id="ad467f3b-f262-4bfc-9b36-4253358229b8" data-name="Shape-19" cx="61.36" cy="176.18" r="5" style="fill:#fab353"/><circle id="acf30c80-8a47-4267-8299-66a675a59fb6" data-name="Shape-20" cx="81.94" cy="176.18" r="5" style="fill:#9dc925"/><g id="f01c88d2-a776-4b85-80be-dba52a8d7b66" data-name="Code"><path id="f7eb70e1-d7b1-4c5e-bf57-129ec5451507" data-name="Shape-21" d="M126.58,216.39h91.19a3,3,0,0,1,0,5.92H126.58a3,3,0,1,1,0-5.92Z" style="fill:#bbc0d6"/><path id="ee8838c9-0c79-465e-a484-62ca7426de52" data-name="Shape-22" d="M77.6,216.39a2.77,2.77,0,0,1,2.78,2.78v.36a2.78,2.78,0,0,1-5.56,0v-.35A2.78,2.78,0,0,1,77.6,216.39Z" style="fill:#e5e8f5"/><path id="bc3aeeb8-7881-4342-9d5b-b95f71f43fb7" data-name="Shape-23" d="M77.6,224.49a2.77,2.77,0,0,1,2.78,2.78v.36a2.78,2.78,0,0,1-5.56,0v-.36A2.78,2.78,0,0,1,77.6,224.49Z" style="fill:#e5e8f5"/><path id="b6dc37e9-83c2-4fab-a53a-dc0ec7888053" data-name="Shape-24" d="M77.6,247.25A2.78,2.78,0,0,1,80.38,250v.35a2.78,2.78,0,0,1-5.56,0V250A2.79,2.79,0,0,1,77.6,247.25Z" style="fill:#e5e8f5"/><path id="a4be837e-ccb3-452f-a158-d31380364984" data-name="Shape-25" d="M77.6,259.4a2.78,2.78,0,0,1,2.78,2.78v.36a2.78,2.78,0,0,1-5.56,0v-.36A2.79,2.79,0,0,1,77.6,259.4Z" style="fill:#e5e8f5"/><path id="b16af5e7-e76c-43c0-9fcb-15d6bc4fbe73" data-name="Shape-26" d="M77.6,271.44a2.78,2.78,0,0,1,2.78,2.78v.36a2.78,2.78,0,0,1-5.56,0v-.36A2.79,2.79,0,0,1,77.6,271.44Z" style="fill:#e5e8f5"/><path id="b0ded071-b903-4378-8f59-b273f5784903" data-name="Shape-27" d="M77.6,280.71a2.77,2.77,0,0,1,2.78,2.78v.35a2.78,2.78,0,0,1-5.56,0v-.35A2.78,2.78,0,0,1,77.6,280.71Z" style="fill:#e5e8f5"/><path id="b359d606-9eff-4aea-adc5-58cca2708fa8" data-name="Shape-28" d="M77.6,300.47a2.77,2.77,0,0,1,2.78,2.78v.36a2.78,2.78,0,0,1-5.56,0v-.36A2.78,2.78,0,0,1,77.6,300.47Z" style="fill:#e5e8f5"/><path id="ad40e4c2-b2a5-43d6-8a28-1aa1d13e2fef" data-name="Shape-29" d="M77.6,312.41a2.77,2.77,0,0,1,2.78,2.78v.35a2.78,2.78,0,0,1-5.56,0v-.35A2.78,2.78,0,0,1,77.6,312.41Z" style="fill:#e5e8f5"/><path id="f49de70a-a6e2-40d4-861d-0254cf72b8af" data-name="Shape-30" d="M77.6,324.25A2.77,2.77,0,0,1,80.38,327v.36a2.78,2.78,0,0,1-5.56,0V327A2.78,2.78,0,0,1,77.6,324.25Z" style="fill:#e5e8f5"/><path id="e9a7b034-5f70-4fbf-a82c-c23fc886fca0" data-name="Shape-31" d="M77.6,333.43a2.77,2.77,0,0,1,2.78,2.78v.36a2.78,2.78,0,0,1-5.56,0v-.35A2.78,2.78,0,0,1,77.6,333.43Z" style="fill:#e5e8f5"/><path id="bde18bec-9da5-4783-874a-998e7be3513e" data-name="Shape-32" d="M77.6,354.31a2.77,2.77,0,0,1,2.78,2.78v.35a2.78,2.78,0,0,1-5.56,0v-.35A2.78,2.78,0,0,1,77.6,354.31Z" style="fill:#e5e8f5"/><path id="bf405788-e906-4ca4-b831-b2394a2d7c5a" data-name="Shape-33" d="M77.6,363.76a2.78,2.78,0,0,1,2.78,2.79v.35a2.78,2.78,0,0,1-5.56,0v-.35A2.79,2.79,0,0,1,77.6,363.76Z" style="fill:#e5e8f5"/><path id="ad168eeb-dbdf-4e62-982e-0e30618ce36a" data-name="Shape-34" d="M77.6,385.45a2.78,2.78,0,0,1,2.78,2.79v.35a2.78,2.78,0,0,1-5.56,0v-.35A2.79,2.79,0,0,1,77.6,385.45Z" style="fill:#e5e8f5"/><path id="b2157860-a8d7-4c76-b9a9-40eaec91aa09" data-name="Shape-35" d="M77.6,397.24A2.78,2.78,0,0,1,80.38,400v.36a2.78,2.78,0,0,1-5.56,0V400A2.79,2.79,0,0,1,77.6,397.24Z" style="fill:#e5e8f5"/><path id="b52ec9e5-b094-4bb4-b7e4-9dc371b11932" data-name="Shape-36" d="M77.6,409.12a2.78,2.78,0,0,1,2.78,2.79v.35a2.78,2.78,0,0,1-5.56,0v-.35A2.79,2.79,0,0,1,77.6,409.12Z" style="fill:#e5e8f5"/><path id="b7adedf1-10fd-4bf0-89ec-68a1193c360b" data-name="Shape-37" d="M77.6,418.93a2.78,2.78,0,0,1,2.78,2.78v.36a2.78,2.78,0,0,1-5.56,0v-.36A2.79,2.79,0,0,1,77.6,418.93Z" style="fill:#e5e8f5"/><path id="ad8a30c7-f306-494f-aabc-82457dcec471" data-name="Shape-38" d="M77.6,438.24A2.78,2.78,0,0,1,80.38,441v.36a2.78,2.78,0,0,1-5.56,0V441A2.79,2.79,0,0,1,77.6,438.24Z" style="fill:#e5e8f5"/><path id="e66e124c-05f1-4cfd-80b9-4867403e1bc6" data-name="Shape-39" d="M77.6,450.25A2.77,2.77,0,0,1,80.38,453v.36a2.78,2.78,0,0,1-5.56,0V453A2.78,2.78,0,0,1,77.6,450.25Z" style="fill:#e5e8f5"/><path id="a8595a09-aa43-40ac-92b8-6ebc29c1ca74" data-name="Shape-40" d="M93.06,225.15h77.83a3,3,0,1,1,0,5.92H93.06a3,3,0,0,1-3-3h0A3,3,0,0,1,93.06,225.15Z" style="fill:#f9b25f"/><path id="b5e830ee-9b26-45b0-82d4-3c39dec51315" data-name="Shape-41" d="M181.44,225.15H317a3,3,0,0,1,0,5.92H181.44a3,3,0,0,1,0-5.92Z" style="fill:#bbc0d6"/><path id="b7df40ae-2ecb-4b9f-b643-709b4e5be373" data-name="Shape-42" d="M91.65,247.46h48.58a3,3,0,1,1,0,5.92H91.65a3,3,0,1,1,0-5.92Z" style="fill:#e5e8f5"/><path id="e0e8c2aa-72ba-4d7e-b6f6-7e2f0be68d11" data-name="Shape-43" d="M102,259.71h83.36a3,3,0,0,1,0,5.92H102a3,3,0,0,1,0-5.92Z" style="fill:#f9b25f"/><path id="bbc91dde-1801-4ba3-8dca-faec0a559ea7" data-name="Shape-44" d="M119.45,271.48H258.36a3,3,0,1,1,0,5.92H119.45a3,3,0,0,1,0-5.92Z" style="fill:#bbc0d6"/><path id="a39ee82a-6768-499b-8421-e4905f34ee8b" data-name="Shape-45" d="M280.88,271.48H363a3,3,0,1,1,0,5.92H280.88a3,3,0,1,1,0-5.92Z" style="fill:#bbc0d6"/><path id="b241199f-3904-4332-bf90-a4f78ce7d85e" data-name="Shape-46" d="M107.37,281.59H278a3,3,0,0,1,0,5.92H107.37a3,3,0,1,1,0-5.92Z" style="fill:#bbc0d6"/><path id="b3cb7955-b158-434e-81a4-6ff7c8bb678f" data-name="Shape-47" d="M294.94,281.59h27.22a3,3,0,0,1,0,5.92H294.94a3,3,0,0,1,0-5.92Z" style="fill:#bbc0d6"/><path id="a16eff9d-6bec-4360-8c91-d6ad6f814d79" data-name="Shape-48" d="M243.88,216.39h91.19a3,3,0,0,1,0,5.92H243.88a3,3,0,1,1,0-5.92Z" style="fill:#bbc0d6"/><path id="aecc4ead-0342-4581-8114-c410421c1ac2" data-name="Shape-49" d="M332.38,225.15H410.2a3,3,0,1,1,0,5.92H332.38a3,3,0,0,1-3-3h0A3,3,0,0,1,332.38,225.15Z" style="fill:#bbc0d6"/><path id="bbf9b2c6-fe56-4b28-9945-60f1c2a1096c" data-name="Shape-50" d="M417.92,246H553.46a3,3,0,1,1,0,5.92H417.92a3,3,0,0,1,0-5.92Z" style="fill:#bbc0d6"/><path id="b0ab7b52-028e-4486-902d-0c1c235fec7f" data-name="Shape-51" d="M351.77,247.46h48.58a3,3,0,1,1,0,5.92H351.77a3,3,0,1,1,0-5.92Z" style="fill:#bbc0d6"/><path id="ae8240d4-1ee6-407a-b5aa-6730378cc0d6" data-name="Shape-52" d="M340.25,284.3H463.82a3,3,0,1,1,0,5.92H340.25a3,3,0,1,1,0-5.92Z" style="fill:#bbc0d6"/><path id="bf3963e3-c672-404d-a445-0b700132db99" data-name="Shape-53" d="M379.58,271.48H518.49a3,3,0,1,1,0,5.92H379.58a3,3,0,0,1,0-5.92Z" style="fill:#bbc0d6"/><path id="ab4a9876-44c6-48f1-ac9e-cee88aae422d" data-name="Shape-54" d="M156.56,246.6h170.6a3,3,0,0,1,0,5.92H156.56a3,3,0,0,1,0-5.92Z" style="fill:#bbc0d6"/><path id="a50d579b-6002-4287-a84f-6f11a3ba27a6" data-name="Shape-55" d="M91.65,300.57h48.58a3,3,0,0,1,0,5.92H91.65a3,3,0,0,1,0-5.92Z" style="fill:#e5e8f5"/><path id="afa257e4-f8ea-41db-8b53-71dd2cf2f5f5" data-name="Shape-56" d="M102,312.82h83.36a3,3,0,0,1,0,5.92H102a3,3,0,1,1,0-5.92Z" style="fill:#f9b25f"/><path id="e86f9c87-2ef0-4344-950a-9100733a6277" data-name="Shape-57" d="M119.45,324.6H258.36a3,3,0,1,1,0,5.92H119.45a3,3,0,0,1,0-5.92Z" style="fill:#bbc0d6"/><path id="b9dec1a1-31a0-4758-b46f-9021cbcbcd38" data-name="Shape-58" d="M107.37,334.71H278a3,3,0,0,1,0,5.92H107.37a3,3,0,1,1,0-5.92Z" style="fill:#bbc0d6"/><path id="a637cf9f-d7eb-4f5e-84f0-85fed16e9eaa" data-name="Shape-59" d="M126.58,354.6h91.19a3,3,0,0,1,3,3h0a3,3,0,0,1-3,3H126.58a3,3,0,1,1,0-5.92Z" style="fill:#bbc0d6"/><path id="b75d31a3-7e26-4999-86ba-50ce24c6611a" data-name="Shape-60" d="M93.06,363.35h77.83a3,3,0,1,1,0,5.92H93.06a3,3,0,0,1,0-5.92Z" style="fill:#f9b25f"/><path id="e43b9c36-1ef0-469e-8cf6-26c279cdaff6" data-name="Shape-61" d="M91.65,385.66h48.58a3,3,0,1,1,0,5.92H91.65a3,3,0,0,1,0-5.92Z" style="fill:#e5e8f5"/><path id="a5415cf5-ec15-4769-ba18-022d9bcde6c1" data-name="Shape-62" d="M200.25,397.92H323.83a3,3,0,1,1,0,5.92H200.25a3,3,0,1,1,0-5.92Z" style="fill:#bbc0d6"/><path id="a4009013-a8f1-4242-a625-8e7098bfee79" data-name="Shape-63" d="M102,397.92h83.36a3,3,0,0,1,3,3h0a3,3,0,0,1-3,3H102a3,3,0,1,1,0-5.92Z" style="fill:#f9b25f"/><path id="a82921ae-9197-407e-a9f2-284a8978b284" data-name="Shape-64" d="M119.45,409.69H258.36a3,3,0,1,1,0,5.92H119.45a3,3,0,0,1,0-5.92Z" style="fill:#bbc0d6"/><path id="aef04f1b-c3dc-437b-914c-98a0f7677909" data-name="Shape-65" d="M280.88,409.69H363a3,3,0,1,1,0,5.92H280.88a3,3,0,1,1,0-5.92Z" style="fill:#bbc0d6"/><path id="bd5fc5dd-76c3-47e1-80e2-0b107ec578a8" data-name="Shape-66" d="M107.37,419.8H278a3,3,0,1,1,0,5.92H107.37a3,3,0,0,1-3-3h0A3,3,0,0,1,107.37,419.8Z" style="fill:#bbc0d6"/><path id="b31fba84-033c-4c11-a31d-ca6b97833233" data-name="Shape-67" d="M294.94,419.8h27.22a3,3,0,0,1,0,5.92H294.94a3,3,0,1,1,0-5.92Z" style="fill:#bbc0d6"/><path id="ae0c991c-f825-4c28-b644-279b871a8b74" data-name="Shape-68" d="M91.65,438.78h48.58a3,3,0,0,1,3,3h0a3,3,0,0,1-3,3H91.65a3,3,0,0,1,0-5.92Z" style="fill:#e5e8f5"/><path id="e6cfe353-e051-444b-8a1f-cc197b2e8630" data-name="Shape-69" d="M200.25,451H323.83a3,3,0,0,1,0,5.92H200.25a3,3,0,0,1,0-5.92Z" style="fill:#bbc0d6"/><path id="ef4d1694-8134-4ef9-91a1-19d4388a56f5" data-name="Shape-70" d="M102,451h83.36a3,3,0,0,1,0,5.92H102a3,3,0,0,1-3-3h0A3,3,0,0,1,102,451Z" style="fill:#f9b25f"/></g></g><g id="fce6484a-a9e1-4b6e-a3cc-ca96f3df4f28" data-name="Phone"><path id="bd50cf3d-ff6e-4bc1-94a4-434ff667c276" data-name="Shape-71" d="M761.65,210.71H924.21a38.55,38.55,0,0,1,38.54,38.54V583a38.55,38.55,0,0,1-38.54,38.54H761.65A38.54,38.54,0,0,1,723.12,583V249.25a38.54,38.54,0,0,1,38.53-38.54Z" style="fill:#56557e"/><path id="b4be088a-37b2-4323-abf7-955e8866a85d" data-name="Shape-72" d="M730.38,263.17h225.1V569.05H730.38Z" style="fill:#fff"/><rect id="be407554-7b0d-4797-93dd-a61806981cd5" data-name="Shape-73" x="730.38" y="481.53" width="225.1" height="87.53" style="fill:none"/><path id="a0360e3c-e8b8-4f1d-a89a-cd3d1dd13325" data-name="Shape-74" d="M796.85,235.32H908.8a5.49,5.49,0,0,1,0,11H796.85a5.49,5.49,0,0,1,0-11Z" style="fill:#a1a8c5"/><circle id="bcbf862b-b954-49c8-ae42-0b72e5e1e112" data-name="Shape-75" cx="776.97" cy="240.9" r="5.4" style="fill:#a1a8c5"/><circle id="e0d07d32-6a9e-4ea4-a399-3ab6506547d2" data-name="Shape-76" cx="842.74" cy="595.6" r="16.1" style="fill:#a1a8c5"/></g><g id="b49f6378-e448-407c-8f9d-f555c38e5cba" data-name="Apps"><g id="ac67667c-fe88-4d7d-9edc-48d031a0826d" data-name="Shape-77"><path id="b00f124a-9626-4277-a0b1-16a8aec5b5bf" data-name="Path 4981" d="M749.62,277.68h45.07a8,8,0,0,1,8,8v45.07a8,8,0,0,1-8,8H749.62a8,8,0,0,1-8-8V285.68A8,8,0,0,1,749.62,277.68Z" style="fill:#e5e8f5"/></g><path id="e6e1667c-1058-45f2-bdb6-59bc18b66232" data-name="Shape-78" d="M822.18,277.68h45.07a8,8,0,0,1,8,8v45.07a8,8,0,0,1-8,8H822.18a8,8,0,0,1-8-8V285.68A8,8,0,0,1,822.18,277.68Z" style="fill:#8fba73"/><path id="aed271d5-671e-4eec-ba9e-2c043b9190f1" data-name="Shape-79" d="M753.84,251.76h45.07a8,8,0,0,1,8,8v45.07a8,8,0,0,1-8,8H753.84a8,8,0,0,1-8-8V259.76A8,8,0,0,1,753.84,251.76Z" style="fill:#f9b25f"/><g id="a0dd95ae-9827-4f88-a398-6ebc8446660f" data-name="Shape-80"><path id="fde2674e-297e-407c-9105-6672248fe4a7" data-name="Path 4982" d="M894.75,277.68h45.07a8,8,0,0,1,8,8v45.07a8,8,0,0,1-8,8H894.75a8,8,0,0,1-8-8V285.68A8,8,0,0,1,894.75,277.68Z" style="fill:#e5e8f5"/></g><g id="ada1b78c-1243-4bd7-a39a-50e12c8199b3" data-name="Shape-81"><path id="beaacb20-13ac-4bbd-a61d-753c7095ba83" data-name="Path 4980" d="M749.62,355.45h45.07a8,8,0,0,1,8,8v45.07a8,8,0,0,1-8,8H749.62a8,8,0,0,1-8-8V363.45A8,8,0,0,1,749.62,355.45Z" style="fill:#e5e8f5"/><path id="bbd4347c-948b-4fc0-8b7d-da1a04e27a0d" data-name="Path 4979" d="M749.62,495.45h45.07a8,8,0,0,1,8,8v45.07a8,8,0,0,1-8,8H749.62a8,8,0,0,1-8-8V503.45A8,8,0,0,1,749.62,495.45Z" style="fill:#e5e8f5"/><path id="f9653a18-c86c-418a-abb5-32b81af620fb" data-name="Path 4978" d="M822.62,495.45h45.07a8,8,0,0,1,8,8v45.07a8,8,0,0,1-8,8H822.62a8,8,0,0,1-8-8V503.45A8,8,0,0,1,822.62,495.45Z" style="fill:#e5e8f5"/></g><path id="b57612b0-0230-4a68-8d0e-2e42a9248ba0" data-name="Shape-82" d="M822.18,355.45h45.07a8,8,0,0,1,8,8v45.07a8,8,0,0,1-8,8H822.18a8,8,0,0,1-8-8V363.45A8,8,0,0,1,822.18,355.45Z" style="fill:#ff6369"/><path id="b225f4ab-8256-4180-81ef-22403d8c9649" data-name="Shape-83" d="M892.93,355.5H938a8,8,0,0,1,8,8v45.07a8,8,0,0,1-8,8H892.93a8,8,0,0,1-8-8V363.5A8,8,0,0,1,892.93,355.5Z" style="fill:#8765db"/><path id="e3ca264d-af1d-43e5-841c-ca25f8e23207" data-name="Shape-84" d="M894.75,495.27h45.07a8,8,0,0,1,8,8v45.07a8,8,0,0,1-8,8H894.75a8,8,0,0,1-8-8V503.27A8,8,0,0,1,894.75,495.27Z" style="fill:#a25d91"/><circle id="ae014130-937a-49f5-959f-6db8cc22383d" data-name="Shape-85" cx="916.1" cy="388.54" r="18.56" style="fill:#fff"/><circle id="b8f59d0f-0bd9-4c21-89e5-cbf5bdaf3eb3" data-name="Shape-86" cx="934.43" cy="366.3" r="4.32" style="fill:#fff"/><path id="f6ebdb3e-e3d1-4f39-a86c-2731ac07ee18" data-name="Shape-87" d="M862.86,396.24H840.05L827.8,407.69l-.21-11.45c-3.43,0-6.24-3.11-6.24-6.92V374.54c0-3.8,2.81-6.91,6.24-6.91h35.27c3.43,0,6.24,3.11,6.24,6.91v14.79C869.1,393.13,866.29,396.24,862.86,396.24Z" style="fill:#fff"/><path id="ef377e59-814e-475a-8a40-46cfc0934bd6" data-name="Shape-88" d="M833.35,292.61h22.91a9.78,9.78,0,0,1,9.79,9.78v12.45a9.79,9.79,0,0,1-9.79,9.79H833.35a9.79,9.79,0,0,1-9.79-9.79V302.39a9.79,9.79,0,0,1,9.79-9.78Z" style="fill:#fff"/><path id="b3ff7c8e-ad64-4e60-a58c-32507c92a7e8" data-name="Shape-89" d="M839.42,315.81v-15.9l15.9,7.86Z" style="fill:#8fba73"/><path id="b0c9fdbf-258d-4fc0-9a86-b3ce597a7f0f" data-name="Shape-90" d="M929.18,518.49c0,5.19-11.71,24-11.71,24s-11.71-18.82-11.71-24,5.24-9.4,11.71-9.4S929.18,513.3,929.18,518.49Z" style="fill:#fff"/><path id="fdce86b8-a08f-4a73-a8fb-422deae203e0" data-name="Shape-91" d="M796.22,267.86H767.93v-.94a1.41,1.41,0,0,0-1.41-1.41h-7.38a1.42,1.42,0,0,0-1.42,1.41v.94h-.8a3.14,3.14,0,0,0-3.13,3.14v19.66a3.13,3.13,0,0,0,3.13,3.13h39.3a3.13,3.13,0,0,0,3.13-3.13V271A3.14,3.14,0,0,0,796.22,267.86Z" style="fill:#fff"/><path id="fd4742f3-aabe-4b16-826e-6c03914fbdaa" data-name="Shape-92" d="M776,291a10.41,10.41,0,1,1,10.4-10.41h0A10.42,10.42,0,0,1,776,291Zm0-20a9.62,9.62,0,1,0,9.62,9.62h0A9.63,9.63,0,0,0,776,271Z" style="fill:#f9b25f"/><circle id="f8bf251c-f7b2-49a5-84ca-275f1a1676fc" data-name="Shape-93" cx="775.99" cy="280.63" r="7.7" style="fill:#f9b25f"/></g><path id="feaaa337-d263-45b7-9327-3d0224c70e31" data-name="Shape-94" d="M773.43,110h6v143h-6Z" style="fill:#8f97b9"/></g></svg>